<svg width="24" height="24" viewBox="0 0 24 24" fill="none" xmlns="http://www.w3.org/2000/svg">
<rect width="24" height="24" fill="#0D0A47"/>
<path fill-rule="evenodd" clip-rule="evenodd" d="M7.88392 3C5.1854 3 3 5.18661 3 7.88403V21H15.0677C18.3421 21 21 18.3393 21 15.0649V3H7.88392ZM10.8925 8.02736H10.8852C12.6165 7.78114 14.2297 8.6815 14.9975 10.1478H13.4397C12.7272 10.1478 12.1181 10.5962 11.8782 11.2246C11.8708 11.2283 11.8634 11.2319 11.856 11.2356C11.8523 11.2356 11.8486 11.243 11.845 11.2503C11.5275 11.5664 11.007 11.5664 10.6858 11.2503C10.671 11.2356 10.66 11.2356 10.6526 11.2246C10.4126 10.5962 9.80353 10.1478 9.09106 10.1478H7.89869C8.47457 9.03797 9.55989 8.21478 10.8962 8.02736H10.8925ZM14.4401 11.8236C14.4401 12.3748 13.9934 12.8232 13.4397 12.8232C12.886 12.8232 12.4393 12.3748 12.4393 11.8236C12.4393 11.2724 12.886 10.824 13.4397 10.824C13.9934 10.824 14.4401 11.2724 14.4401 11.8236ZM10.0878 11.8236C10.0878 12.3748 9.6411 12.8232 9.08737 12.8232C8.53363 12.8232 8.08696 12.3748 8.08696 11.8236C8.08696 11.2724 8.53363 10.824 9.08737 10.824C9.6411 10.824 10.0878 11.2724 10.0878 11.8236ZM16.9208 15.2487C16.8839 15.2523 16.8507 15.256 16.8138 15.2597C16.6107 15.2744 16.4151 15.2523 16.2342 15.1972C15.9094 15.4251 15.5254 15.5868 15.1046 15.6456C14.5656 15.7227 14.0414 15.6272 13.5874 15.392C13.1222 15.6823 12.587 15.8918 12.0111 15.9763C11.0587 16.1123 10.1321 15.8991 9.36423 15.4324C9.32363 15.4508 9.28302 15.4692 9.24241 15.4839L9.22026 15.4912C9.2018 15.4986 9.17966 15.5059 9.1612 15.5133C8.99508 15.5757 8.82158 15.6198 8.64069 15.6419C7.22683 15.844 5.91632 14.8555 5.71698 13.4369C5.56194 12.3528 6.10459 11.3275 7.00902 10.824H7.75472C7.54799 11.1033 7.41879 11.4451 7.41879 11.8236C7.41879 12.746 8.17186 13.4957 9.09106 13.4957C9.91427 13.4957 10.6009 12.893 10.7375 12.1066C10.9073 12.1727 11.0882 12.2058 11.2691 12.2058C11.45 12.2058 11.6272 12.1727 11.8007 12.1066C11.9372 12.893 12.6239 13.4957 13.4471 13.4957C14.3663 13.4957 15.1194 12.7423 15.1194 11.8236C15.1194 11.4488 14.9975 11.1033 14.7834 10.824H16.0164C16.5037 11.1033 16.8987 11.5296 17.1239 12.0551C17.733 12.2242 18.2203 12.735 18.3089 13.4038C18.4307 14.3005 17.8179 15.1237 16.9208 15.245V15.2487Z" fill="#2FEA9E"/>
</svg>
